Coordinates
version=1
nRows=13
nColumns=38
inDegrees=no

Units are S.I. units (second, meters, Newtons, ...)
If the header above contains a line with 'inDegrees', this indicates whether rotational values are in degrees (yes) or radians (no).

endheader
time	pelvis_tilt	pelvis_list	pelvis_rotation	pelvis_tx	pelvis_ty	pelvis_tz	hip_flexion_r	hip_adduction_r	hip_rotation_r	knee_angle_r	ankle_angle_r	subtalar_angle_r	mtp_angle_r	hip_flexion_l	hip_adduction_l	hip_rotation_l	knee_angle_l	ankle_angle_l	subtalar_angle_l	mtp_angle_l	lumbar_extension	lumbar_bending	lumbar_rotation	arm_flex_r	arm_add_r	arm_rot_r	elbow_flex_r	pro_sup_r	wrist_flex_r	wrist_dev_r	arm_flex_l	arm_add_l	arm_rot_l	elbow_flex_l	pro_sup_l	wrist_flex_l	wrist_dev_l
0.73	0.490392	1.36217	-1.86627	0.539833	1.27196	0.918117	0.448336	-0.254042	-0.175474	0.437305	-0.125283	0	0	-0.325574	0.145055	-0.0306177	0.290397	-0.0301294	0	0	-0.208059	0.053791	0.187112	-0.311712	-0.50661	-0.273208	1.61511	0.850095	0	0	0.509661	-0.388414	0.600129	0.955852	0.797515	0	0
0.74	0.516561	1.36649	-1.89364	0.539685	1.26157	0.915853	0.424658	-0.249784	-0.155418	0.358932	-0.121491	0	0	-0.327837	0.147792	-0.027275	0.300162	-0.0200699	0	0	-0.198849	0.0526492	0.194436	-0.320079	-0.502579	-0.281374	1.61798	0.852136	0	0	0.465972	-0.313063	0.432435	0.93121	0.896945	0	0
0.75	0.51099	1.3586	-1.88756	0.53933	1.25152	0.914601	0.370378	-0.240945	-0.127396	0.247426	-0.154603	0	0	-0.346449	0.145993	-0.0270149	0.30479	-0.0109551	0	0	-0.208405	0.0509779	0.192745	-0.316979	-0.503005	-0.279388	1.61902	0.85276	0	0	0.496474	-0.364923	0.550138	0.944721	0.830762	0	0
0.76	0.537265	1.35663	-1.91258	0.539113	1.2411	0.912361	0.34625	-0.243071	-0.11724	0.194833	-0.155139	0	0	-0.35627	0.149323	-0.0222161	0.311852	-0.00439516	0	0	-0.207985	0.0442514	0.191049	-0.316427	-0.502213	-0.277594	1.61967	0.852929	0	0	0.509746	-0.38867	0.600577	0.954022	0.806035	0	0
0.77	0.555871	1.35455	-1.92838	0.539028	1.23066	0.910436	0.316901	-0.243259	-0.105335	0.136926	-0.171571	0	0	-0.366822	0.150467	-0.0149342	0.318896	0.00436627	0	0	-0.206333	0.0421678	0.195841	-0.324836	-0.499891	-0.285873	1.62386	0.853309	0	0	0.483663	-0.335663	0.491418	0.933171	0.86402	0	0
0.78	0.579158	1.35149	-1.94894	0.538866	1.22033	0.908257	0.303721	-0.247289	-0.108916	0.124643	-0.170101	0	0	-0.377439	0.152662	-0.00973816	0.326041	0.0092351	0	0	-0.208083	0.0351209	0.190174	-0.319804	-0.501593	-0.279611	1.62282	0.85288	0	0	0.508581	-0.381751	0.587992	0.949513	0.822335	0	0
0.79	0.59748	1.34851	-1.96314	0.538792	1.21006	0.90623	0.295256	-0.250532	-0.11931	0.130751	-0.170519	0	0	-0.38774	0.15319	-0.00193452	0.334484	0.0149345	0	0	-0.209668	0.0303972	0.186034	-0.317492	-0.503339	-0.276647	1.62273	0.851956	0	0	0.520546	-0.398214	0.626673	0.955695	0.789978	0	0
0.8	0.608291	1.34819	-1.9693	0.538809	1.19967	0.904373	0.290257	-0.249746	-0.131384	0.14542	-0.17618	0	0	-0.395441	0.150555	0.0047888	0.34298	0.0171827	0	0	-0.207818	0.030944	0.185982	-0.32064	-0.504238	-0.279672	1.62439	0.851935	0	0	0.505783	-0.368545	0.567272	0.941113	0.813688	0	0
0.81	0.633846	1.35101	-1.98884	0.539004	1.18932	0.901945	0.314768	-0.256803	-0.168388	0.227107	-0.138717	0	0	-0.396421	0.150457	0.020056	0.359311	0.0289306	0	0	-0.202951	0.0276962	0.177709	-0.315747	-0.508242	-0.272395	1.62236	0.847507	0	0	0.516039	-0.389678	0.60899	0.949051	0.795099	0	0
0.82	0.637336	1.35018	-1.98622	0.539125	1.17887	0.900247	0.320091	-0.258375	-0.193235	0.27932	-0.133303	0	0	-0.404067	0.14605	0.0303629	0.371734	0.0333765	0	0	-0.204348	0.0283955	0.171352	-0.312763	-0.510948	-0.269778	1.62249	0.846535	0	0	0.523267	-0.399955	0.633211	0.953085	0.778836	0	0
0.83	0.634781	1.34839	-1.97785	0.539225	1.16826	0.898929	0.317544	-0.257943	-0.211328	0.320205	-0.142568	0	0	-0.413811	0.140521	0.0395915	0.38273	0.0344449	0	0	-0.207147	0.0312805	0.168195	-0.313791	-0.512988	-0.272026	1.62517	0.846296	0	0	0.521132	-0.392052	0.621284	0.948718	0.783394	0	0
0.84	0.647566	1.34783	-1.9835	0.539407	1.15742	0.897426	0.320608	-0.26318	-0.233349	0.373867	-0.130882	0	0	-0.420624	0.138038	0.0566136	0.397301	0.0378108	0	0	-0.207	0.0316324	0.164782	-0.316932	-0.51295	-0.276783	1.62884	0.847636	0	0	0.518967	-0.38329	0.609096	0.943836	0.790782	0	0
0.85	0.648186	1.34649	-1.97881	0.539233	1.14628	0.896348	0.305735	-0.25975	-0.23765	0.384534	-0.132374	0	0	-0.430065	0.13214	0.064284	0.40759	0.0360676	0	0	-0.209711	0.0334044	0.160943	-0.317404	-0.514296	-0.277989	1.63164	0.848818	0	0	0.523298	-0.389869	0.624458	0.946852	0.787205	0	0
